<svg xmlns="http://www.w3.org/2000/svg" viewBox="0 0 753.78802 117.13358">
  <g fill="#fff">
    <path d="M178.56 41.01a19.35 19.35 0 0115.02 6.84l11.12-10c-6.1-7.28-15.45-11.23-27.02-11.23-20.05 0-34.43 13.25-34.43 31.95s14.38 31.95 34.08 31.95c9 0 18.8-2.73 25.96-7.82V57.25h-15.45V74.1a22.34 22.34 0 01-9.45 2.02c-10.42 0-17.48-7.2-17.48-17.55 0-10.63 7.06-17.56 17.65-17.56z"/>
    <path d="M245.62 26.62c-19.77 0-34.34 13.51-34.34 31.94s14.57 31.95 34.34 31.95c19.78 0 34.35-13.51 34.35-31.95 0-18.43-14.57-31.94-34.35-31.94zm0 49.5c-9.36 0-16.68-6.94-16.68-17.56 0-10.62 7.32-17.55 16.68-17.55s16.69 6.93 16.69 17.55c0 10.62-7.33 17.56-16.69 17.56z"/>
    <path d="M320.37 26.62c-19.78 0-34.35 13.51-34.35 31.94s14.57 31.95 34.35 31.95S354.7 77 354.7 58.56c0-18.43-14.56-31.94-34.34-31.94zm0 49.5c-9.36 0-16.69-6.94-16.69-17.56 0-10.62 7.33-17.55 16.69-17.55 9.36 0 16.68 6.93 16.68 17.55 0 10.62-7.32 17.56-16.68 17.56z"/>
    <path d="M393.17 27.85h-29.22v61.43h29.22c20.49 0 34.53-11.85 34.53-30.72 0-18.86-14.05-30.71-34.53-30.71zm-.7 47.57h-11.05v-33.7h11.05c10.5 0 17.56 6.23 17.56 16.85 0 10.62-7.06 16.85-17.56 16.85z"/>
    <path d="M495.66 89.28h46.97V75.51h-29.49V27.85h-17.48z"/>
    <path d="M579.75 26.62c-19.78 0-34.34 13.51-34.34 31.94s14.56 31.95 34.34 31.95S614.1 77 614.1 58.56c0-18.43-14.57-31.94-34.35-31.94zm0 49.5c-9.36 0-16.68-6.94-16.68-17.56 0-10.62 7.32-17.55 16.68-17.55s16.69 6.93 16.69 17.55c0 10.62-7.33 17.56-16.69 17.56z"/>
    <path d="M654.5 26.62c-19.78 0-34.35 13.51-34.35 31.94s14.57 31.95 34.35 31.95S688.84 77 688.84 58.56c0-18.43-14.56-31.94-34.34-31.94zm0 49.5c-9.36 0-16.7-6.94-16.7-17.56 0-10.62 7.34-17.55 16.7-17.55s16.68 6.93 16.68 17.55c0 10.62-7.32 17.56-16.68 17.56z"/>
    <path d="M726.33 27.84h-28.26v61.44h17.48V73.22h10.78c16.86 0 27.46-8.69 27.46-22.64 0-14.05-10.6-22.74-27.46-22.74zm-1.07 31.69h-9.7v-18h9.7c7.25 0 10.87 3.34 10.87 9.05 0 5.61-3.62 8.95-10.86 8.95z"/>
    <path d="M442.53 48.66h32.72v18.12h-32.72z"/>
    <path d="M41.9 87.56c.12.14-2.88 3.22-3.18 3.6a15.67 15.67 0 00-3 5.95c-1 4.08-.2 9.63 3.9 11.79 6.27 3.3 12.22-4.33 12.01-10.45-.18-5.35-2.16-10.28-6.23-13.66-1.07-.88-3.2-2.57-3.2-2.57a102.93 102.93 0 00-6.36-4.65c-2.9-1.95-5.98-3.93-8.26-6.62-7.12-8.39-8.02-22.12-1.06-30.86a19.84 19.84 0 011.99-2.19 16.4 16.4 0 0111.72-4.66c6.08.14 11.99 3.74 15.7 9.54a3.56 3.56 0 01-1.37 5.21 4.63 4.63 0 01-1.42.54 3.8 3.8 0 01-4.09-1.75c-3.17-4.98-8.39-6.99-12.86-4.63a11.1 11.1 0 00-3.7 3.23c-.13.17-.24.36-.36.54-4.04 5.96-2.94 14.63 1.57 19.99 3.78 4.49 9.04 7.45 13.84 10.85l.3.23a30.84 30.84 0 018.62 9.74 24.08 24.08 0 011.97 4.44c2.96 9.26-.22 21.56-9.91 25.03a59.54 59.54 0 0010.41.93 58.5 58.5 0 0034.9-105.75c1.81 8.4-.97 19.23-4.04 25.27a67.48 67.48 0 01-8.45 12.49q-1.58 1.9-3.25 3.73a48.5 48.5 0 01-1.35-4.12q-.74-2.62-1.24-5.3a77.04 77.04 0 003.4-4.35c4.37-6.09 7.15-12.56 7.26-20.2.06-3.51-.67-9.04-3.67-10.45a4.77 4.77 0 00-4.31.4l-.37.23c-6.6 3.73-7.33 15.02-7.47 21.5-.06 2.5.03 5.02.21 7.54a3.73 3.73 0 00.05.67 71.28 71.28 0 002.48 14.25 46.03 46.03 0 002.3 6.25c1.56 3.4 4.34 9.6 8.46 10.54 1.55.35 2.95-.61 3.89-3.77a22.66 22.66 0 00.65-3.05 3.13 3.13 0 013.64-2.82 4.67 4.67 0 011.35.34 4.24 4.24 0 012.69 4.59 18.41 18.41 0 01-2.72 7.43c-3 4.56-7.9 6.45-12.86 4.67a16.08 16.08 0 01-6.13-4.16c-3.26-3.44-5.42-7.85-7.07-12.24-.17-.44-.32-.89-.47-1.33A85.72 85.72 0 0162.8 40.3c-1-9.71-.76-20.45 3.5-29.34a21.77 21.77 0 016.24-7.68 18.3 18.3 0 011.84-1.23A58.97 58.97 0 000 58.57a58.47 58.47 0 0029.16 50.54c-4.42-8.13-.7-19.45 5.66-25.6l1.06-.98a31.63 31.63 0 013.47 2.53c.86.68 2.55 2.5 2.55 2.5zm13.2-10.87a46.63 46.63 0 00-3.7-2.92l-.51-.39c-.7-.5-1.42-.98-2.14-1.47 1.49-1.69 2.98-3.33 4.42-4.87a325.9 325.9 0 018.43-8.6 59.35 59.35 0 001.67 4.44c.5 1.18 1.03 2.35 1.62 3.5a203.78 203.78 0 00-9.78 10.31z"/>
  </g>
</svg>
