<?xml version="1.0" encoding="UTF-8"?>
<svg id="Layer_1" data-name="Layer 1" xmlns="http://www.w3.org/2000/svg" viewBox="0 0 600 600">
  <defs>
    <style>
      .cls-1 {
        fill: #fff;
        stroke-width: 0px;
      }
    </style>
  </defs>
  <path class="cls-1" d="M300,5C137.34,5,5,137.34,5,300s132.34,295,295,295,295-132.34,295-295S462.66,5,300,5ZM300,552.91c-139.45,0-252.9-113.45-252.9-252.91S160.55,47.09,300,47.09s252.91,113.45,252.91,252.9-113.45,252.91-252.91,252.91Z"/>
  <path class="cls-1" d="M275.53,138.9c-58.38,0-105.7,47.32-105.7,105.7s47.32,105.7,105.7,105.7,105.7-47.32,105.7-105.7c0-23.89-7.94-45.93-21.31-63.63h42.59v-42.09h-126.98v.03ZM339.13,244.6c0,35.07-28.53,63.6-63.6,63.6s-63.6-28.53-63.6-63.6,28.53-63.6,63.6-63.6,63.6,28.53,63.6,63.6Z"/>
  <path class="cls-1" d="M190.77,308.1h-42.09c0,96.43,72.72,169.15,169.15,169.15v-42.09c-72.43,0-127.05-54.62-127.05-127.05Z"/>
</svg>